<svg xmlns="http://www.w3.org/2000/svg" viewBox="0 0 1680 940" width="1680" height="940" font-family="Segoe UI,Helvetica,Arial,sans-serif">
<defs><marker id="a" viewBox="0 0 10 10" refX="9" refY="5" markerWidth="7" markerHeight="7" orient="auto-start-reverse"><path d="M0,0 L10,5 L0,10 z" fill="#666"/></marker></defs>
<rect width="1680" height="940" fill="#fff"/>
<text x="60" y="36" font-size="22" font-weight="700" fill="#222">The Documentation Fabric — who does what, when and where</text>
<text x="60" y="54" font-size="12.5" font-style="italic" fill="#555">Microsoft retrieves; the fabric vouches — the two meet in the assistant, at the moment a question is answered, never by pre-merging one into the other’s store.</text>
<rect x="50" y="60" width="1580" height="110" fill="#fbf7f0" stroke="#c9c9c9"/>
<text x="70" y="109.0" transform="rotate(-90 70 115.0)" text-anchor="middle" font-size="15" font-weight="700" fill="#555">AUTHOR</text>
<text x="86" y="119.0" transform="rotate(-90 86 115.0)" text-anchor="middle" font-size="10.5" fill="#888">writes where they already work</text>
<rect x="50" y="170" width="1580" height="130" fill="#f2f2f2" stroke="#c9c9c9"/>
<text x="70" y="229.0" transform="rotate(-90 70 235.0)" text-anchor="middle" font-size="15" font-weight="700" fill="#555">SYSTEMS OF RECORD</text>
<text x="86" y="239.0" transform="rotate(-90 86 235.0)" text-anchor="middle" font-size="10.5" fill="#888">SharePoint · ADO · APIM · EA — content stays here</text>
<rect x="50" y="300" width="1580" height="310" fill="#f7f5fc" stroke="#c9c9c9"/>
<text x="70" y="449.0" transform="rotate(-90 70 455.0)" text-anchor="middle" font-size="15" font-weight="700" fill="#555">THE FABRIC</text>
<text x="86" y="459.0" transform="rotate(-90 86 455.0)" text-anchor="middle" font-size="10.5" fill="#888">pointers, facets, relations — and how each fact is known</text>
<rect x="50" y="610" width="1580" height="160" fill="#fbf7f0" stroke="#c9c9c9"/>
<text x="70" y="684.0" transform="rotate(-90 70 690.0)" text-anchor="middle" font-size="15" font-weight="700" fill="#555">OWNER · STEWARD</text>
<text x="86" y="694.0" transform="rotate(-90 86 690.0)" text-anchor="middle" font-size="10.5" fill="#888">two questions, two different people</text>
<rect x="50" y="770" width="1580" height="120" fill="#eef7f2" stroke="#c9c9c9"/>
<text x="70" y="824.0" transform="rotate(-90 70 830.0)" text-anchor="middle" font-size="15" font-weight="700" fill="#555">RESEARCHERS · AGENTS</text>
<text x="86" y="834.0" transform="rotate(-90 86 830.0)" text-anchor="middle" font-size="10.5" fill="#888">find, browse, anchor</text>
<circle cx="230" cy="115" r="19" fill="#fff" stroke="#333" stroke-width="2"/>
<text x="230" y="120" text-anchor="middle" font-size="13" fill="#333">&#9654;</text>
<text x="230" y="151" text-anchor="middle" font-size="11" fill="#333">writes a document</text>
<rect x="273.0" y="207.0" width="250" height="56" rx="7" fill="#ededed" stroke="#777777" stroke-width="2"/>
<text x="398" y="231" text-anchor="middle" font-size="14" font-weight="700" fill="#222">Stored where it lives</text>
<text x="398" y="250" text-anchor="middle" font-size="11" fill="#555">SharePoint · ADO · APIM — never copied</text>
<path d="M249,115 L398,115 L398,207" fill="none" stroke="#666" stroke-width="2" marker-end="url(#a)"/>
<rect x="273.0" y="332.0" width="250" height="56" rx="7" fill="#f3f0fa" stroke="#5b4b8a" stroke-width="2"/>
<text x="398" y="356" text-anchor="middle" font-size="14" font-weight="700" fill="#222">Catalogue the record</text>
<text x="398" y="375" text-anchor="middle" font-size="11" fill="#555">pointer + facets  (the ABox)</text>
<path d="M398,263 L398,332" fill="none" stroke="#666" stroke-width="2" marker-end="url(#a)"/>
<text x="398.0" y="290.5" text-anchor="middle" font-size="11" fill="#666">change event</text>
<rect x="446.0" y="332.0" width="240" height="56" rx="7" fill="#f3f0fa" stroke="#5b4b8a" stroke-width="2"/>
<text x="566" y="356" text-anchor="middle" font-size="14" font-weight="700" fill="#222">Classify</text>
<text x="566" y="375" text-anchor="middle" font-size="11" fill="#555">reads the ~100-concept scheme (the TBox)</text>
<path d="M523,360 L446,360" fill="none" stroke="#666" stroke-width="2" marker-end="url(#a)"/>
<polygon points="694,336 718,360 694,384 670,360" fill="#fff" stroke="#444" stroke-width="2"/>
<text x="694" y="365" text-anchor="middle" font-size="15" fill="#555">?</text>
<text x="694" y="328" text-anchor="middle" font-size="12" font-weight="700" fill="#333">matched?</text>
<path d="M686,360 L670,360" fill="none" stroke="#666" stroke-width="2" marker-end="url(#a)"/>
<rect x="777.0" y="314.0" width="250" height="52" rx="7" fill="#f3f0fa" stroke="#5b4b8a" stroke-width="2"/>
<text x="902" y="336" text-anchor="middle" font-size="14" font-weight="700" fill="#222">Subject link at rung X</text>
<text x="902" y="355" text-anchor="middle" font-size="11" fill="#555">an agent extracted this</text>
<path d="M718,360 L777,345" fill="none" stroke="#666" stroke-width="2" marker-end="url(#a)"/>
<text x="747.5" y="345.5" text-anchor="middle" font-size="11" fill="#666">yes</text>
<rect x="777.0" y="444.0" width="250" height="52" rx="7" fill="#f3f0fa" stroke="#5b4b8a" stroke-width="2"/>
<text x="902" y="466" text-anchor="middle" font-size="14" font-weight="700" fill="#222">Candidate register</text>
<text x="902" y="485" text-anchor="middle" font-size="11" fill="#555">counted, not asked</text>
<path d="M694,384 L694,470 L777,470" fill="none" stroke="#666" stroke-width="2" marker-end="url(#a)"/>
<text x="735.5" y="463.0" text-anchor="middle" font-size="11" fill="#666">no</text>
<polygon points="1080,446 1104,470 1080,494 1056,470" fill="#fff" stroke="#444" stroke-width="2"/>
<text x="1080" y="475" text-anchor="middle" font-size="15" fill="#555">?</text>
<text x="1080" y="438" text-anchor="middle" font-size="12" font-weight="700" fill="#333">threshold?</text>
<text x="1080" y="511" text-anchor="middle" font-size="10" fill="#777">a term seen once is not a concept</text>
<path d="M1027,470 L1056,470" fill="none" stroke="#666" stroke-width="2" marker-end="url(#a)" stroke-dasharray="6 4"/>
<rect x="945.0" y="650.0" width="270" height="60" rx="7" fill="#fdf3e3" stroke="#b9770e" stroke-width="2" stroke-dasharray="7 4"/>
<text x="1080" y="676" text-anchor="middle" font-size="14" font-weight="700" fill="#222">STEWARD admits the term</text>
<text x="1080" y="695" text-anchor="middle" font-size="11" fill="#555">batched · once per term, not per artifact</text>
<text x="958.0" y="668.0" text-anchor="middle" font-size="15" fill="#b9770e">&#9673;</text>
<path d="M1080,494 L1080,650" fill="none" stroke="#666" stroke-width="2" marker-end="url(#a)" stroke-dasharray="6 4"/>
<text x="1080.0" y="565.0" text-anchor="middle" font-size="11" fill="#666">reached</text>
<rect x="777.0" y="535.0" width="250" height="50" rx="7" fill="#f3f0fa" stroke="#5b4b8a" stroke-width="2" stroke-dasharray="7 4"/>
<text x="902" y="556" text-anchor="middle" font-size="14" font-weight="700" fill="#222">Re-match what waited</text>
<text x="902" y="575" text-anchor="middle" font-size="11" fill="#555">FR-1.1.5</text>
<path d="M945,680 L902,680 L902,585" fill="none" stroke="#666" stroke-width="2" marker-end="url(#a)" stroke-dasharray="6 4"/>
<text x="902.0" y="625.5" text-anchor="middle" font-size="11" fill="#666">on admission</text>
<path d="M777,560 L566,560 L566,388" fill="none" stroke="#666" stroke-width="2" marker-end="url(#a)" stroke-dasharray="6 4"/>
<rect x="955.0" y="314.0" width="250" height="52" rx="7" fill="#f3f0fa" stroke="#5b4b8a" stroke-width="2"/>
<text x="1080" y="336" text-anchor="middle" font-size="14" font-weight="700" fill="#222">Ask the OWNER</text>
<text x="1080" y="355" text-anchor="middle" font-size="11" fill="#555">one card — type and context</text>
<path d="M1027,345 L955,345" fill="none" stroke="#666" stroke-width="2" marker-end="url(#a)"/>
<rect x="1143.0" y="650.0" width="250" height="60" rx="7" fill="#fdf3e3" stroke="#b9770e" stroke-width="2"/>
<text x="1268" y="676" text-anchor="middle" font-size="14" font-weight="700" fill="#222">OWNER confirms</text>
<text x="1268" y="695" text-anchor="middle" font-size="11" fill="#555">one tap · the only way up the ladder</text>
<text x="1156.0" y="668.0" text-anchor="middle" font-size="15" fill="#b9770e">&#9673;</text>
<path d="M1205,345 L1268,345 L1268,650" fill="none" stroke="#666" stroke-width="2" marker-end="url(#a)"/>
<polygon points="1456,656 1480,680 1456,704 1432,680" fill="#fff" stroke="#444" stroke-width="2"/>
<text x="1456" y="685" text-anchor="middle" font-size="15" fill="#555">?</text>
<text x="1456" y="648" text-anchor="middle" font-size="12" font-weight="700" fill="#333">approved?</text>
<path d="M1393,680 L1432,680" fill="none" stroke="#666" stroke-width="2" marker-end="url(#a)"/>
<circle cx="1456" cy="820" r="19" fill="#fff" stroke="#333" stroke-width="4"/>
<text x="1456" y="825" text-anchor="middle" font-size="13" fill="#333">&#9632;</text>
<text x="1456" y="856" text-anchor="middle" font-size="11" fill="#333">withdrawn</text>
<path d="M1456,704 L1456,801" fill="none" stroke="#666" stroke-width="2" marker-end="url(#a)"/>
<text x="1456.0" y="745.5" text-anchor="middle" font-size="11" fill="#666">no</text>
<rect x="1454.0" y="334.0" width="220" height="52" rx="7" fill="#f3f0fa" stroke="#5b4b8a" stroke-width="2"/>
<text x="1564" y="356" text-anchor="middle" font-size="14" font-weight="700" fill="#222">Published</text>
<text x="1564" y="375" text-anchor="middle" font-size="11" fill="#555">state + baseline</text>
<path d="M1480,680 L1564,680 L1564,386" fill="none" stroke="#666" stroke-width="2" marker-end="url(#a)"/>
<text x="1564.0" y="526.0" text-anchor="middle" font-size="11" fill="#666">yes</text>
<rect x="1454.0" y="454.0" width="220" height="52" rx="7" fill="#f3f0fa" stroke="#5b4b8a" stroke-width="2"/>
<text x="1564" y="476" text-anchor="middle" font-size="14" font-weight="700" fill="#222">Project a page</text>
<text x="1564" y="495" text-anchor="middle" font-size="11" fill="#555">metadata only, never the content</text>
<path d="M1564,386 L1564,454" fill="none" stroke="#666" stroke-width="2" marker-end="url(#a)"/>
<rect x="1138.0" y="804.0" width="260" height="52" rx="7" fill="#e7f3ec" stroke="#1e8449" stroke-width="2"/>
<text x="1268" y="826" text-anchor="middle" font-size="14" font-weight="700" fill="#222">Copilot answers</text>
<text x="1268" y="845" text-anchor="middle" font-size="11" fill="#555">retrieval + the fabric’s facts, merged</text>
<rect x="1454.0" y="804.0" width="220" height="52" rx="7" fill="#e7f3ec" stroke="#1e8449" stroke-width="2"/>
<text x="1564" y="826" text-anchor="middle" font-size="14" font-weight="700" fill="#222">Pages · MCP</text>
<text x="1564" y="845" text-anchor="middle" font-size="11" fill="#555">browse · agents anchor</text>
<path d="M1564,506 L1564,804" fill="none" stroke="#666" stroke-width="2" marker-end="url(#a)"/>
<path d="M1454,830 L1398,830" fill="none" stroke="#666" stroke-width="2" marker-end="url(#a)"/>
<text x="1620" y="918" text-anchor="end" font-size="11" fill="#777">&#9673; human touchpoint &#160;&#160; &#9671; gateway &#160;&#160; dashed = not built yet</text>
<text x="60" y="918" font-size="11" fill="#777">Rungs: O observed &#183; S suggested &#183; X extracted &#183; C constructed &#183; H human-confirmed &#183; D derived &#160;&#8212;&#160; only C&#183;X&#183;H answer &#8220;what does this change break?&#8221;</text>
</svg>
